<svg xmlns="http://www.w3.org/2000/svg" width="730" height="1228" fill="none"><path fill="#110F0F" d="M-287.023-204.05 729.727-45.74 531.415 1227.914l-1016.75-158.31z"/><g opacity=".6"><mask id="a" width="864" height="1180" x="-152" y="-48" maskUnits="userSpaceOnUse" style="mask-type:luminance"><path fill="#fff" d="M15.021-47.918-151.712 1022.93l696.607 108.46L711.628 60.545z"/></mask><g stroke="#BE40E8" stroke-linecap="round" stroke-linejoin="round" stroke-width="2" mask="url(#a)"><path d="M82.194 1120.57s-11.697-4.44-30.178-14.25c-37.891-20.11-75.496-45.41-105.904-76.06-6.797-6.84-13.249-13.94-19.227-21.32-2.925-3.61-5.953-7.16-8.447-10.979-5.784-8.833-10.629-18.386-15.84-27.939a852 852 0 0 1-18.71-36.235c-36.316-74.838-63.061-160.253-61.704-239.7 1.063-55.165 17.233-106.162 55.935-149.21 8.551-9.534 19.381-18.377 30.078-28.135 15.587-14.248 38.89-24.613 62.293-33.845 38.765-15.164 75.773-29.065 65.261-63.52a208 208 0 0 0-5.66-16.103c-14.974-38.027-41.605-78.791-64.61-119.66-15.88-28.28-30-56.65-37.172-84.273-4.116-15.807-5.97-31.402-4.587-46.576 1.3-14.238 4.881-28.4 13.276-41.449 10.658-16.58 26.196-27.566 43.136-35.961C25.284 53.169 84.947 51.342 133.237 37.69c50.69-14.34 100.047-31.514 149.211-44.5 4.466-1.175 8.821-2.816 13.252-4.36 19.467-6.745 39.112-14.44 58.632-12.294" opacity=".02"/><path d="M95.101 1122.95s-11.181-4.62-28.975-14.51c-36.54-20.36-72.617-46.03-102.1-77.13-6.57-6.91-12.83-14.06-18.677-21.51-2.86-3.63-5.79-7.21-8.216-11.079-5.622-8.891-10.305-18.502-15.389-28.092a784 784 0 0 1-18.1-36.419c-34.958-75.102-58.956-160.284-58.879-240.154.282-55.258 14.473-105.921 51.396-148.744 8.171-9.453 18.707-18.175 29.024-27.852 15.045-14.109 37.615-24.476 60.348-33.729 37.634-15.172 73.892-29.162 63.755-63.279-1.57-5.244-3.404-10.557-5.473-15.935-14.444-37.693-40.132-78.03-62.381-118.446-15.346-27.974-28.934-56.037-35.725-83.35-3.928-15.638-5.633-31.014-4.155-46.006 1.393-14.056 4.983-28.076 13.322-40.967 10.646-16.497 26.098-27.526 42.872-36.03 44.95-22.273 104.079-24.797 151.775-38.961C199.59 25.9 248.127 8.097 295.896-5.553c4.321-1.227 8.564-2.94 12.881-4.53 18.886-6.947 37.716-14.713 56.361-12.647" opacity=".04"/><path d="M108.009 1125.32s-10.665-4.79-27.768-14.8c-35.157-20.58-69.768-46.64-98.295-78.18-6.345-6.99-12.443-14.19-18.097-21.69-2.763-3.67-5.624-7.3-7.99-11.164-5.485-8.982-10.01-18.624-14.907-28.241-6.097-11.926-11.968-24.124-17.52-36.607-33.602-75.366-55.129-160.303-56.081-240.64-.656-55.321 11.704-105.627 46.887-148.273 7.766-9.405 18.033-17.973 27.966-27.543C-43.258 504.19-21.478 493.784.606 484.57c36.483-15.24 71.977-29.237 62.246-63.012a221 221 0 0 0-5.255-15.761C43.707 368.47 18.94 328.499-2.557 288.563c-14.812-27.667-27.87-55.397-34.277-82.426-3.715-15.437-5.262-30.649-3.69-45.459 1.457-13.878 5.115-27.748 13.37-40.484 10.636-16.443 26-27.486 42.636-36.096 44.75-22.36 103.316-25.586 150.482-40.28 49.448-15.399 97.161-33.805 143.5-48.097 4.21-1.3 8.304-3.036 12.505-4.672 18.306-7.15 36.325-15.013 54.122-12.996" opacity=".06"/><path d="M120.917 1127.69s-10.154-4.93-26.59-15.09c-33.772-20.84-66.89-47.25-94.495-79.2-6.12-7.07-12.025-14.33-17.543-21.92-2.695-3.72-5.462-7.36-7.76-11.27-5.319-9.063-9.686-18.737-14.454-28.389a715 715 0 0 1-16.914-36.765c-32.216-75.624-51.086-160.343-53.258-241.094-1.471-55.392 8.906-105.336 42.378-147.802 7.36-9.356 17.329-17.775 26.913-27.259 13.996-13.853 35.042-24.262 56.46-33.524 35.357-15.276 70.096-29.334 60.71-62.776-1.433-5.139-3.13-10.347-5.062-15.62-13.36-36.993-37.15-76.56-57.9-115.989-14.25-27.356-26.804-54.784-32.86-81.507-3.532-15.241-4.896-30.257-3.256-44.916 1.556-13.723 5.215-27.398 13.418-40.003 10.628-16.388 25.906-27.472 42.402-36.16 44.519-22.45 102.551-26.375 149.187-41.597 48.829-15.943 95.719-34.953 140.628-49.886 4.095-1.346 8.049-3.16 12.1-4.82 17.721-7.323 34.93-15.285 51.848-13.322" opacity=".09"/><path d="M133.794 1130.06s-9.607-5.1-25.383-15.38c-32.389-21.07-64.014-47.84-90.69-80.26-5.893-7.14-11.636-14.46-16.962-22.11-2.601-3.72-5.3-7.41-7.535-11.34-5.152-9.148-9.387-18.885-14.002-28.542a662 662 0 0 1-16.303-36.949c-30.86-75.888-47.076-160.361-50.434-241.548-2.286-55.463 6.107-105.046 37.864-147.304 6.986-9.302 16.66-17.6 25.83-26.981 13.458-13.741 33.77-24.153 54.485-33.413 34.23-15.311 68.21-29.404 59.204-62.535-1.377-5.103-3.023-10.247-4.845-15.446-12.805-36.628-35.774-75.76-55.672-114.777-13.779-27.031-25.673-54.188-31.413-80.583C-5.346 197.829-6.586 183-4.856 168.55c1.62-13.545 5.347-27.07 13.465-39.52 10.615-16.307 25.808-27.432 42.137-36.229C95.065 70.263 152.563 65.641 198.61 49.88c48.21-16.486 94.276-36.1 137.756-51.674 3.953-1.423 7.788-3.256 11.724-4.961 17.137-7.499 33.539-15.587 49.607-13.671" opacity=".11"/><path d="M146.701 1132.43s-9.091-5.27-24.18-15.63c-30.977-21.31-61.134-48.46-86.885-81.32-5.667-7.22-11.249-14.6-16.412-22.3-2.533-3.78-5.164-7.51-7.274-11.44-5.016-9.244-9.064-19.008-13.516-28.722a625 625 0 0 1-15.728-37.111c-29.503-76.152-43.031-160.402-47.606-242.03-3.1-55.534 3.305-104.728 33.355-146.833 6.576-9.226 15.956-17.402 24.772-26.671 12.917-13.602 32.466-24.021 52.545-33.323 33.1-15.32 66.298-29.507 57.694-62.268a215 215 0 0 0-4.658-15.277c-12.276-36.294-34.302-75-53.444-113.564-13.245-26.725-24.61-53.549-29.966-79.66-3.066-14.89-4.187-29.504-2.328-43.795 1.717-13.39 5.445-26.719 13.512-39.038 10.606-16.252 25.68-27.395 41.902-36.293 44.118-22.625 101.053-27.95 146.566-44.213 47.587-17.002 92.804-37.25 134.887-53.489 3.839-1.469 7.558-3.348 11.354-5.13 16.586-7.697 32.147-15.887 47.332-13.998" opacity=".13"/><path d="M159.609 1134.81s-8.55-5.41-23.003-15.93c-29.595-21.54-58.26-49.04-83.085-82.35-5.44-7.29-10.83-14.73-15.832-22.49-2.434-3.81-5.001-7.56-7.048-11.51-4.85-9.332-8.769-19.132-13.064-28.878A581 581 0 0 1 2.46 936.357c-28.146-76.416-38.99-160.416-44.781-242.484-3.916-55.605.498-104.383 28.816-146.366 6.2-9.174 15.286-17.228 23.718-26.389 12.38-13.49 31.19-23.884 50.6-33.207 31.973-15.355 64.416-29.604 56.187-62.028-1.27-5.002-2.78-10.041-4.465-15.135-11.815-35.915-32.855-74.272-51.186-112.347-12.716-26.391-23.543-52.935-28.55-78.74-2.852-14.689-3.814-29.14-1.896-43.225 1.782-13.213 5.577-26.392 13.559-38.556 10.624-16.166 25.586-27.382 41.638-36.362 43.917-22.713 100.288-28.74 145.273-45.532C278.369 38.446 322.732 17.59 363.386.71c3.698-1.547 7.301-3.471 10.948-5.278 16.001-7.87 30.782-16.155 45.093-14.346" opacity=".15"/><path d="M172.516 1137.18s-8.033-5.58-21.796-16.22c-28.182-21.76-55.384-49.62-79.28-83.4-5.214-7.37-10.442-14.86-15.277-22.71-2.37-3.83-4.84-7.62-6.818-11.62-4.683-9.413-8.44-19.271-12.611-29.025-5.3-12.333-10.117-24.814-14.538-37.485-26.79-76.679-34.946-160.456-41.958-242.937-4.73-55.676-2.31-104.038 24.303-145.868 5.79-9.098 14.612-17.025 22.634-26.111 11.872-13.373 29.92-23.775 48.654-33.091 30.813-15.368 62.501-29.679 54.649-61.765a234 234 0 0 0-4.248-14.962c-11.29-35.553-31.383-73.511-48.958-111.133-12.213-26.09-22.446-52.318-27.107-77.79-2.64-14.488-3.447-28.747-1.431-42.678 1.88-13.058 5.68-26.068 13.606-38.073 10.616-16.111 25.488-27.342 41.403-36.427 43.722-22.827 99.554-29.523 143.95-46.855 46.378-18.084 89.887-39.547 129.141-57.064 3.583-1.593 7.041-3.569 10.573-5.42 15.416-8.046 29.391-16.456 42.823-14.7" opacity=".17"/><path d="M185.424 1139.55s-7.492-5.72-20.589-16.5c-26.771-21.99-52.509-50.21-75.475-84.45-4.989-7.46-10.024-15-14.698-22.91-2.272-3.87-4.677-7.68-6.591-11.69-4.547-9.508-8.117-19.393-12.13-29.179a555 555 0 0 1-13.932-37.641C16.605 860.242 11.103 776.711 2.845 693.784c-5.55-55.72-5.15-103.671 19.794-145.398 5.381-9.021 13.908-16.827 21.577-25.8 11.334-13.262 28.643-23.638 46.713-33.002 29.686-15.404 60.619-29.776 53.142-61.525-1.168-4.874-2.542-9.808-4.06-14.793-10.76-35.22-29.91-72.751-46.735-109.893-11.679-25.783-21.379-51.705-25.66-76.867-2.42-14.314-3.075-28.381-.995-42.134 1.974-12.876 5.809-25.714 13.654-37.592 10.602-16.029 25.39-27.301 41.138-36.496 43.491-22.919 98.79-30.312 142.656-48.173 45.755-18.6 88.445-40.694 126.273-58.88 3.472-1.666 6.785-3.692 10.197-5.563 14.836-8.247 28-16.756 40.579-15.02" opacity=".19"/><path d="M198.331 1141.92s-6.946-5.88-19.416-16.76c-25.333-22.18-49.638-50.77-71.67-85.51-4.767-7.5-9.636-15.13-14.147-23.1-2.205-3.92-4.511-7.77-6.366-11.77-4.38-9.591-7.818-19.539-11.677-29.329-4.937-12.5-9.4-25.093-13.353-37.83-24.047-77.202-26.865-160.483-36.335-243.878-6.335-55.786-7.966-103.271 15.284-144.926 5.002-8.941 13.24-16.653 20.524-25.518 10.792-13.122 27.368-23.501 44.737-32.891 28.556-15.412 58.734-29.846 51.637-61.284-1.083-4.833-2.405-9.703-3.838-14.646-10.206-34.855-28.468-71.997-44.507-108.681-11.145-25.477-20.316-51.065-24.212-75.943-2.208-14.114-2.74-27.994-.535-41.56 2.038-12.699 5.911-25.391 13.701-37.11 10.594-15.974 25.296-27.287 40.904-36.56 43.29-23.006 98.026-31.102 141.362-49.492 45.136-19.143 86.972-41.845 123.401-60.668 3.326-1.717 6.524-3.788 9.795-5.737 14.252-8.422 26.605-17.029 38.309-15.374" opacity=".21"/><path d="M211.234 1144.32s-6.404-6.02-18.209-17.05c-23.925-22.38-46.763-51.35-67.869-86.54-4.541-7.57-9.218-15.26-13.563-23.31-2.111-3.93-4.349-7.83-6.106-11.87-4.214-9.677-7.493-19.656-11.22-29.51-4.771-12.585-9.043-25.232-12.743-38.014-22.69-77.465-22.791-160.519-33.511-244.332-7.12-55.852-10.816-102.849 10.77-144.428 4.593-8.865 12.535-16.454 19.47-25.234 10.255-13.011 26.063-23.37 42.797-32.803 27.425-15.421 56.822-29.948 50.126-61.016-1.032-4.769-2.268-9.598-3.65-14.478-9.676-34.52-26.991-71.264-42.249-107.463-10.612-25.17-19.249-50.452-22.795-75.024-2.025-13.918-2.368-27.629-.099-41.018 2.136-12.543 6.043-25.062 13.748-36.627 10.582-15.893 25.168-27.252 40.669-36.625 43.09-23.093 97.291-31.886 140.034-50.788 44.518-19.686 85.5-42.996 120.529-62.456 3.215-1.79 6.264-3.884 9.42-5.879 13.667-8.597 25.213-17.329 36.068-15.723" opacity=".23"/><path d="M224.142 1146.7s-5.863-6.17-17.002-17.34c-22.517-22.58-43.892-51.92-64.094-87.6-4.315-7.66-8.83-15.4-13.013-23.51-2.043-3.97-4.187-7.88-5.88-11.94-4.047-9.767-7.169-19.778-10.739-29.662-4.604-12.672-8.684-25.373-12.166-38.177-21.335-77.729-18.752-160.532-30.688-244.786-7.934-55.923-13.669-102.399 6.232-143.961 4.209-8.758 11.865-16.28 18.382-24.929 9.718-12.899 24.792-23.261 40.852-32.686 26.298-15.457 54.94-30.046 48.62-60.776-.976-4.733-2.162-9.498-3.458-14.336-9.151-34.16-25.518-70.505-40.021-106.251-10.078-24.864-18.182-49.839-21.349-74.101-1.806-13.743-1.995-27.263.363-40.443 2.2-12.365 6.142-24.712 13.796-36.145 10.572-15.838 25.069-27.211 40.404-36.694 42.889-23.18 96.527-32.676 138.741-52.106 43.894-20.203 84.026-44.147 117.685-64.24 3.071-1.84 6.008-4.008 9.045-6.02 13.082-8.773 23.822-17.63 33.794-16.05" opacity=".26"/><path d="M237.049 1149.07s-5.295-6.27-15.794-17.63c-21.085-22.75-41.052-52.47-60.29-88.65-4.093-7.7-8.442-15.53-12.433-23.69-1.944-4.02-4.021-7.98-5.649-12.06-3.911-9.85-6.841-19.915-10.287-29.808-4.438-12.757-8.296-25.508-11.557-38.361-19.977-77.992-14.677-160.568-27.859-245.267-8.72-55.99-16.497-101.918 1.723-143.491 3.799-8.681 11.191-16.077 17.328-24.646 9.18-12.787 23.516-23.124 38.911-32.597 25.168-15.465 53.054-30.116 47.08-60.513-.925-4.669-2.025-9.393-3.24-14.163-8.626-33.798-24.076-69.748-37.793-105.038-9.545-24.557-17.089-49.193-19.902-73.176-1.593-13.543-1.658-26.877.798-39.901 2.299-12.211 6.245-24.389 13.843-35.663 10.59-15.751 24.976-27.197 40.17-36.758 42.688-23.267 95.792-33.46 137.447-53.425 43.275-20.746 82.519-45.276 114.817-66.055 2.959-1.913 5.748-4.104 8.673-6.19 12.498-8.948 22.427-17.903 31.554-16.399" opacity=".28"/><path d="M249.957 1151.44s-4.753-6.41-14.621-17.89c-19.651-22.92-38.181-53.03-56.486-89.71-3.866-7.78-8.023-15.66-11.882-23.89-1.88-4.03-3.859-8.03-5.423-12.12-3.745-9.943-6.547-20.044-9.835-29.968-4.242-12.838-7.938-25.647-10.981-38.522-18.591-78.252-10.607-160.577-25.035-245.722-9.505-56.056-19.33-101.409-2.791-142.992 3.416-8.574 10.492-15.907 16.275-24.363 8.673-12.671 22.211-22.992 36.965-32.482 24.008-15.478 51.144-30.218 45.575-60.272-.87-4.633-1.918-9.293-3.053-13.994-8.097-33.465-22.599-69.016-35.569-103.798-9.011-24.251-16.022-48.58-18.485-72.258-1.379-13.342-1.286-26.511 1.264-39.353 2.363-12.033 6.373-24.034 13.89-35.181 10.582-15.697 24.878-27.157 39.905-36.827 42.488-23.354 95.029-34.25 136.124-54.749 42.651-21.262 81.047-46.426 111.944-67.842 2.845-1.96 5.488-4.201 8.268-6.338 11.913-9.122 21.066-18.199 29.284-16.751" opacity=".3"/><path d="M262.834 1153.81s-4.215-6.52-13.414-18.18c-18.221-23.06-35.339-53.6-52.684-90.73-3.675-7.84-7.636-15.8-11.299-24.11-1.782-4.07-3.726-8.09-5.192-12.23-3.579-10.026-6.219-20.185-9.383-30.118-4.076-12.924-7.579-25.787-10.371-38.707-17.235-78.515-6.532-160.612-22.241-246.18-10.29-56.122-22.162-100.9-7.3-142.521 3.032-8.466 9.822-15.732 15.187-24.058 8.135-12.559 20.935-22.855 34.99-32.37 22.877-15.487 49.262-30.315 44.069-60.032-.788-4.564-1.782-9.187-2.86-13.852-7.572-33.104-21.127-68.256-33.312-102.581-8.482-23.917-14.955-47.967-17.038-71.334-1.161-13.169-.919-26.119 1.695-38.783 2.461-11.879 6.476-23.711 13.938-34.699 10.569-15.615 24.75-27.121 39.67-36.892 42.262-23.473 94.294-35.035 134.826-56.04 42.062-21.8 79.57-47.55 109.072-69.63 2.703-2.037 5.261-4.32 7.892-6.48 11.329-9.297 19.671-18.472 27.01-17.078" opacity=".32"/><path d="M275.742 1156.18s-3.649-6.63-12.207-18.46c-16.823-23.2-32.469-54.16-48.88-91.79-3.449-7.91-7.218-15.93-10.748-24.3-1.714-4.12-3.56-8.18-4.937-12.31-3.412-10.107-5.894-20.297-8.896-30.289-3.91-13.01-7.221-25.926-9.791-38.895-15.878-78.779-2.462-160.622-19.413-246.662-11.075-56.189-25.003-100.337-11.809-142.05 2.648-8.358 9.118-15.534 14.134-23.775 7.597-12.447 19.659-22.719 33.048-32.281 21.747-15.495 47.347-30.391 42.559-59.765-.737-4.5-1.645-9.082-2.643-13.678-7.012-32.766-19.684-67.501-31.083-101.368-7.949-23.61-13.893-47.327-15.591-70.411-.978-12.973-.548-25.754 2.16-38.236 2.526-11.701 6.608-23.382 13.985-34.216 10.561-15.561 24.656-27.108 39.406-36.961 42.061-23.561 93.53-35.825 133.532-57.36 41.439-22.316 78.063-48.677 106.199-71.417 2.588-2.083 5.001-4.417 7.517-6.623 10.74-9.444 18.28-18.772 24.77-17.426" opacity=".34"/><path d="M288.649 1158.56s-3.111-6.75-11.03-18.76c-15.397-23.32-29.632-54.69-45.075-92.85-3.227-7.96-6.829-16.06-10.168-24.48-1.616-4.17-3.398-8.24-4.706-12.41-3.246-10.2-5.6-20.426-8.445-30.449-3.743-13.096-6.833-26.062-9.185-39.053-14.522-79.042 1.642-160.652-16.589-247.115-11.859-56.256-37.117-103.09-16.318-141.58 4.09-7.602 8.449-15.359 13.08-23.492 7.061-12.335 18.354-22.587 31.103-32.165 20.617-15.503 45.465-30.488 41.054-59.524-.682-4.464-1.543-8.955-2.455-13.51-6.488-32.404-18.208-66.768-28.856-100.155-7.415-23.304-12.825-46.714-14.173-69.492-.765-12.771-.211-25.366 2.591-37.666 2.619-11.518 6.706-23.032 14.032-33.734 10.578-15.474 24.558-27.067 39.172-37.026 41.86-23.647 92.79-36.581 132.208-58.681 40.82-22.86 76.56-49.835 103.331-73.234 2.443-2.133 4.74-4.513 7.115-6.796 10.155-9.62 16.889-19.073 22.496-17.753" opacity=".36"/><path d="M301.556 1160.93s-2.543-6.85-9.822-19.04c-13.973-23.43-26.791-55.26-41.275-93.88-3.001-8.04-6.411-16.19-9.613-24.71-1.552-4.18-3.236-8.29-4.481-12.48-3.079-10.29-5.271-20.57-7.992-30.602-3.577-13.181-6.475-26.201-8.605-39.241-13.135-79.302 5.712-160.662-13.765-247.57-12.615-56.317-40.555-102.424-20.861-141.086 3.83-7.503 7.749-15.188 12.022-23.182 6.523-12.223 17.078-22.45 29.162-32.076 19.456-15.517 43.579-30.558 39.517-59.289-.63-4.399-1.406-8.849-2.232-13.363-5.959-32.07-16.736-66.008-26.598-98.938-6.912-23.001-11.759-46.101-12.727-68.568-.547-12.598.161-25.001 3.057-37.119 2.718-11.363 6.839-22.704 14.079-33.251 10.569-15.42 24.46-27.027 38.937-37.091 41.66-23.734 92.027-37.371 130.914-60 40.197-23.376 75.05-50.936 100.459-75.022 2.332-2.206 4.481-4.609 6.74-6.938 9.571-9.794 15.494-19.346 20.256-18.102" opacity=".38"/><path d="M314.464 1163.3s-2.01-6.93-8.619-19.3c-12.582-23.52-23.955-55.79-37.47-94.93-2.779-8.09-6.024-16.33-9.034-24.9-1.453-4.22-3.069-8.38-4.25-12.59-2.913-10.37-4.947-20.682-7.51-30.745-3.38-13.263-6.116-26.341-7.999-39.399-11.779-79.565 9.816-160.692-10.941-248.024-13.4-56.383-43.921-101.635-25.371-140.614 3.54-7.409 7.05-15.019 10.939-22.904 5.99-12.139 15.803-22.314 27.217-31.96 18.325-15.525 41.667-30.66 38.007-59.021-.575-4.363-1.299-8.749-2.045-13.195-5.433-31.709-15.288-65.28-24.374-97.698-6.378-22.695-10.696-45.46-11.284-67.617-.333-12.397.528-24.608 3.492-36.576 2.782-11.186 6.938-22.353 14.127-32.769 10.556-15.339 24.366-27.014 38.672-37.16 41.46-23.821 91.293-38.155 129.621-61.32 39.608-23.913 73.572-52.058 97.586-76.808 2.187-2.258 4.224-4.733 6.364-7.081 8.982-9.942 14.103-19.646 17.986-18.455" opacity=".4"/><path d="M327.371 1165.67s-1.477-7.01-7.442-19.59c-11.191-23.61-21.118-56.33-33.665-95.99-2.583-8.16-5.606-16.46-8.454-25.08-1.385-4.27-2.907-8.44-4.024-12.67-2.746-10.45-4.623-20.799-7.058-30.898-3.214-13.348-5.724-26.503-7.389-39.583-10.239-79.828 13.92-160.724-8.113-248.505-14.155-56.445-47.235-100.783-29.88-140.144 3.22-7.319 6.376-14.816 9.886-22.621 5.452-12.027 14.493-22.154 25.241-31.849 17.19-15.506 39.786-30.757 36.501-58.78-.523-4.299-1.162-8.644-1.857-13.026-4.874-31.371-13.815-64.52-22.146-96.485-5.844-22.388-9.599-44.843-9.837-66.693-.12-12.197.899-24.244 3.954-36.002 2.88-11.031 7.07-22.026 14.174-32.287 10.543-15.257 24.238-26.978 38.437-37.224 41.229-23.913 90.528-38.945 128.293-62.616 38.985-24.43 72.066-53.187 94.718-78.624 2.076-2.33 3.964-4.83 5.989-7.223C553.096-.336 557.41-10.167 560.44-8.997" opacity=".43"/><path d="M340.278 1168.05s-.943-7.1-6.235-19.88c-9.8-23.71-18.311-56.87-29.86-97.05-2.361-8.21-5.217-16.59-7.903-25.28-1.292-4.27-2.745-8.49-3.794-12.76-2.58-10.54-4.295-20.95-6.602-31.085-3.047-13.435-5.365-26.644-6.809-39.772-8.882-80.092 18.025-160.755-5.318-248.964-14.941-56.512-50.499-99.866-34.394-139.645 2.935-7.252 5.677-14.646 8.828-22.311 4.884-11.92 13.218-22.018 23.3-31.76 16.056-15.488 37.9-30.828 34.991-58.513-.438-4.258-1.026-8.539-1.635-12.88-4.349-31.009-12.339-63.787-19.918-95.272-5.307-22.109-8.536-44.202-8.42-65.775.064-12 1.237-23.856 4.419-35.454 2.944-10.853 7.203-21.698 14.222-31.805 10.565-15.197 24.144-26.965 38.172-37.293 41.029-24 89.794-39.73 127-63.934 38.365-24.974 70.554-54.289 91.845-80.412 1.931-2.381 3.704-4.926 5.587-7.398 7.839-10.259 11.347-20.215 13.472-19.13" opacity=".45"/><path d="M353.187 1170.42s-.411-7.19-5.028-20.17c-8.448-23.74-15.475-57.4-26.06-98.07-2.139-8.26-4.829-16.73-7.319-25.49-1.223-4.33-2.583-8.56-3.538-12.84-2.414-10.63-3.97-21.068-6.12-31.234-2.851-13.516-4.977-26.779-6.203-39.929-7.496-80.351 22.124-160.76-2.495-249.418-15.695-56.574-53.655-98.849-38.902-139.175 2.614-7.162 4.977-14.475 7.774-22.027 4.351-11.836 11.942-21.882 21.355-31.645 14.925-15.496 35.989-30.929 33.455-58.277-.387-4.194-.919-8.438-1.447-12.71-3.82-30.676-10.892-63.06-17.66-94.055-4.774-21.803-7.469-43.59-6.973-64.851.281-11.827 1.608-23.491 4.85-34.885 3.038-10.671 7.301-21.347 14.269-31.323 10.552-15.115 24.046-26.923 37.938-37.357 40.832-24.115 89.059-40.514 125.706-65.253 37.772-25.485 68.987-55.426 89.002-82.195 1.816-2.427 3.443-5.022 5.212-7.54 7.249-10.407 9.955-20.515 11.231-19.479" opacity=".47"/><path d="M366.094 1172.79s.088-7.25-3.855-20.43c-7.122-23.81-12.668-57.94-22.255-99.13-1.943-8.34-4.411-16.85-6.769-25.68-1.155-4.37-2.417-8.65-3.311-12.92-2.248-10.71-3.677-21.187-5.668-31.384-2.685-13.602-4.62-26.918-5.624-40.118-6.11-80.61 26.229-160.791.334-249.9-16.476-56.667-56.726-97.791-43.441-138.708 2.298-7.099 4.277-14.305 6.69-21.749 3.814-11.724 10.662-21.718 19.414-31.556 13.79-15.477 34.103-31 31.95-58.037-.336-4.13-.783-8.333-1.23-12.536-3.261-30.338-9.42-62.3-15.432-92.843-4.24-21.496-6.402-42.976-5.526-63.927.494-11.626 1.975-23.099 5.315-34.337 3.107-10.521 7.434-21.02 14.316-30.841 10.544-15.061 23.949-26.883 37.674-37.427 40.631-24.201 88.291-41.276 124.412-66.571 37.153-26.028 67.532-56.49 86.13-83.984 1.67-2.477 3.213-5.113 4.836-7.682 6.69-10.55 8.564-20.815 8.957-19.804" opacity=".49"/><path d="M379.001 1175.17s.588-7.31-2.648-20.72c-5.769-23.86-9.86-58.49-18.45-100.19-1.721-8.39-4.023-16.99-6.188-25.87-1.062-4.39-2.255-8.71-3.082-13.02-2.081-10.8-3.348-21.334-5.216-31.54-2.489-13.682-4.261-27.058-5.017-40.275-4.724-80.868 30.333-160.822 3.157-250.353-17.231-56.729-46.791-94.988-47.954-138.21-.206-7.322 3.577-14.134 5.632-21.44 3.251-11.643 9.383-21.554 17.469-31.439 12.655-15.458 32.191-31.102 30.439-57.769-.28-4.094-.646-8.228-1.037-12.395-2.736-29.977-7.943-61.567-13.205-91.63-3.706-21.19-5.339-42.336-4.108-63.008.678-11.43 2.316-22.738 5.747-33.767 3.2-10.339 7.531-20.67 14.363-30.359 10.561-14.975 23.854-26.87 37.439-37.491 40.431-24.289 87.556-42.061 123.084-67.868 36.53-26.544 66.017-57.564 83.261-85.798 1.56-2.55 2.953-5.21 4.436-7.856 6.101-10.698 7.168-21.09 6.717-20.154" opacity=".51"/><path d="M391.879 1177.53s1.086-7.37-1.441-21c-4.476-23.91-7.054-59.03-14.65-101.21-1.529-8.45-3.605-17.13-5.634-26.1-.993-4.43-2.092-8.76-2.855-13.1-1.915-10.88-3.024-21.445-4.734-31.682-2.322-13.769-3.873-27.193-4.437-40.464-3.337-81.128 34.467-160.849 5.981-250.808-17.987-56.79-49.325-94.237-52.464-137.739-.504-7.173 4.163-13.764 4.579-21.156.653-11.853 8.107-21.418 15.494-31.328 11.52-15.44 30.31-31.2 28.933-57.529-.229-4.03-.539-8.128-.849-12.226-2.207-29.643-6.467-60.834-10.981-90.39-3.173-20.883-4.272-41.723-2.662-62.085.896-11.256 2.684-22.346 6.213-33.22 3.269-10.188 7.664-20.341 14.41-29.876 10.553-14.92 23.727-26.834 37.204-37.556 40.201-24.38 86.822-42.845 121.791-69.186 35.936-27.055 64.505-58.665 80.389-87.586 1.414-2.601 2.692-5.307 4.059-7.999 5.547-10.867 5.778-21.389 4.443-20.48" opacity=".53"/><path d="M404.786 1179.91s1.59-7.47-.264-21.3c-3.183-23.96-4.276-59.57-10.844-102.27-1.304-8.52-3.217-17.26-5.054-26.28-.895-4.47-1.927-8.85-2.626-13.21-1.753-10.94-2.699-21.559-4.277-31.86-2.126-13.849-3.515-27.332-3.827-40.648-1.951-81.387 38.575-160.907 8.809-251.289-18.742-56.852-51.829-93.482-56.973-137.268-.833-7.028 3.412-13.657 3.496-20.878.132-11.655 6.827-21.254 13.552-31.239 10.411-15.389 28.424-31.27 27.424-57.262-.174-3.993-.407-7.995-.632-12.052-1.652-29.277-4.994-60.075-8.723-89.172-2.64-20.577-3.239-41.088-1.215-61.162 1.109-11.055 3.055-21.981 6.648-32.677 3.363-10.006 7.767-20.018 14.458-29.394 10.539-14.839 23.628-26.794 36.939-37.625 40-24.468 86.058-43.635 120.497-70.505 35.317-27.599 63.02-59.735 77.516-89.374 1.3-2.647 2.437-5.43 3.685-8.141 4.987-11.01 4.382-21.662 2.203-20.829" opacity=".55"/><path d="M417.693 1182.28s2.06-7.53.94-21.56c-1.891-24-1.47-60.11-7.04-103.32-1.112-8.58-2.799-17.39-4.504-26.48-.831-4.49-1.764-8.91-2.369-13.27-1.587-11.03-2.371-21.711-3.825-32.02-1.961-13.936-3.157-27.473-3.252-40.81-.594-81.65 42.709-160.934 11.604-251.748-19.493-56.941-54.299-92.749-61.487-136.769-1.127-6.907 2.691-13.547 2.438-20.569-.384-11.483 5.548-21.09 11.607-31.123 9.276-15.37 26.513-31.372 25.888-57.025-.093-3.925-.271-7.891-.44-11.912-1.122-28.943-3.547-59.346-6.495-87.959-2.106-20.27-2.172-40.474.202-60.243 1.293-10.859 3.423-21.588 7.109-32.102 3.462-9.851 7.895-19.663 14.506-28.912 10.556-14.752 23.534-26.78 36.704-37.689 39.8-24.555 85.319-44.393 119.174-71.828 34.724-28.11 61.504-60.81 74.643-91.163 1.155-2.697 2.206-5.522 3.279-8.288 4.429-11.153 2.992-21.962-.067-21.181" opacity=".57"/><path d="M430.601 1184.65s2.528-7.59 2.146-21.84c-.658-24.07 1.307-60.66-3.235-104.38-.889-8.63-2.411-17.52-3.919-26.7-.733-4.52-1.603-8.96-2.139-13.37-1.421-11.12-2.047-21.827-3.343-32.168-1.764-14.016-2.769-27.607-2.642-40.994.792-81.909 46.843-160.961 14.427-252.202-20.248-57.003-56.674-92.03-66.025-136.303-1.426-6.758 1.936-13.413 1.384-20.286-.9-11.312 4.268-20.926 9.666-31.034 8.167-15.319 24.627-31.442 24.382-56.785-.037-3.888-.164-7.79-.222-11.738-.563-28.605-2.07-58.613-4.267-86.746-1.568-19.991-1.109-39.835 1.649-59.32 1.507-10.658 3.764-21.227 7.545-31.559 3.525-9.674 7.998-19.34 14.552-28.43 10.549-14.697 23.437-26.74 36.441-37.759 39.603-24.669 84.584-45.177 117.879-73.146 34.105-28.654 60.019-61.878 71.776-92.978 1.043-2.77 1.945-5.618 2.907-8.457 3.87-11.296 1.6-22.263-2.311-21.504" opacity=".6"/><path d="M443.505 1187.05s2.968-7.66 3.324-22.13c.604-24.12 4.113-61.2.565-105.41-.693-8.71-1.993-17.65-3.369-26.89-.665-4.57-1.406-9.04-1.913-13.45-1.254-11.2-1.723-21.944-2.891-32.321-1.602-14.075-2.41-27.747-2.062-41.183 2.178-82.168 50.977-160.988 17.252-252.656-20.999-57.092-59.021-91.306-70.535-135.832-1.724-6.609.05-13.288.331-20.003.422-11.162 3.018-20.757 7.69-30.923 7.062-15.296 22.746-31.539 22.872-56.517.015-3.825-.027-7.685-.034-11.569-.038-28.244-.594-57.881-2.009-85.529-1.035-19.685.435-39.147 3.092-58.369 1.451-10.499 4.131-20.835 8.006-30.985 3.619-9.491 8.126-18.984 14.599-27.948 10.566-14.61 23.339-26.699 36.206-37.822 39.402-24.757 83.85-45.962 116.582-74.438 33.511-29.165 58.529-62.92 68.902-94.766.928-2.816 1.686-5.715 2.532-8.6 3.311-11.438.235-22.53-4.581-21.856" opacity=".62"/><path d="M456.412 1189.43s3.437-7.74 4.531-22.43c1.838-24.18 6.891-61.74 4.37-106.46-.501-8.76-1.605-17.79-2.789-27.08-.571-4.58-1.244-9.1-1.683-13.55-1.058-11.29-1.394-22.091-2.439-32.477-1.405-14.156-2.051-27.887-1.456-41.34 3.565-82.427 55.116-161.041 20.08-253.137-21.724-57.149-61.328-90.632-75.043-135.361-1.989-6.483-.654-13.09-.758-19.698-.144-11.055 1.739-20.593 5.746-30.806 5.982-15.241 20.834-31.642 21.366-56.278.07-3.787.109-7.58.158-11.426.521-27.906.883-57.149.214-84.29-.501-19.378 1.021-38.581 4.539-57.444 1.908-10.289 4.503-20.471 8.441-30.443 3.688-9.341 8.229-18.662 14.648-27.466 10.552-14.529 23.214-26.69 35.941-37.892 39.172-24.848 83.115-46.746 115.258-75.761 32.892-29.708 57.044-63.99 66.03-96.554.783-2.866 1.455-5.806 2.156-8.741 2.752-11.582-1.156-22.832-6.821-22.206" opacity=".64"/><path d="M469.319 1191.8s6.027-7.67 5.734-22.68c-.496-24.52 9.634-62.27 8.175-107.52-.279-8.81-1.186-17.92-2.239-27.27-.502-4.63-1.082-9.17-1.456-13.64-.892-11.36-1.071-22.201-1.953-32.644-1.239-14.243-1.664-28.023-.876-41.53 4.947-82.659 59.25-161.068 22.904-253.591-22.475-57.238-63.572-89.975-79.557-134.863-2.253-6.356-1.384-12.924-1.811-19.414-.737-10.98.488-20.425 3.804-30.718 4.874-15.19 18.949-31.712 19.856-56.01.121-3.724.217-7.48.376-11.253 1.046-27.545 2.385-56.384 2.442-83.077a279 279 0 0 1 5.956-56.526c2.122-10.087 4.87-20.078 8.907-29.895 3.782-9.159 8.357-18.306 14.695-26.983 10.574-14.47 23.116-26.65 35.706-37.957 38.971-24.935 82.377-47.504 113.964-77.08 32.299-30.22 55.555-65.03 63.158-98.341.668-2.913 1.194-5.903 1.751-8.889 2.193-11.724-2.547-23.132-9.096-22.532" opacity=".66"/><path d="M482.227 1194.17s6.363-7.67 6.941-22.97c.911-24.71 12.41-62.81 11.975-108.54-.083-8.9-.798-18.06-1.654-27.49-.405-4.67-.92-9.22-1.197-13.73-.725-11.46-.746-22.326-1.5-32.805-1.044-14.324-1.306-28.162-.271-41.687 6.334-82.917 63.388-161.122 25.728-254.045-23.226-57.327-65.747-89.365-84.066-134.392-2.518-6.23-2.083-12.754-2.864-19.132-1.335-10.877-.762-20.256 1.858-30.602 3.799-15.161 17.038-31.813 18.321-55.773.202-3.656.353-7.375.563-11.085 1.605-27.206 3.862-55.651 4.67-81.864.601-18.787 3.121-37.332 7.403-55.602 2.305-9.892 5.212-19.718 9.339-29.326 3.85-9.008 8.489-17.978 14.737-26.473 10.561-14.388 23.019-26.609 35.472-38.021 38.771-25.022 81.613-48.294 112.67-78.399 31.706-30.731 54.099-66.096 60.29-100.157.552-2.958.785-6.022 1.409-9.053 2.261-11.77-3.942-23.405-11.335-22.88" opacity=".68"/><path d="M495.134 1196.54s4.733-8 8.118-23.26c5.455-24.42 15.188-63.35 15.78-109.6.109-8.94-.41-18.19-1.104-27.68-.341-4.69-.754-9.31-.97-13.81-.559-11.54-.422-22.437-1.049-32.953-.847-14.404-.947-28.301.34-41.871 7.719-83.176 67.526-161.175 28.556-254.526-23.982-57.389-67.918-88.781-88.576-133.921-2.811-6.108-2.816-12.56-3.951-18.826-1.933-10.775-2.605-20.208-.083-30.513 3.611-14.939 15.156-31.911 16.815-55.534.257-3.618.489-7.269.785-10.938 2.164-26.867 5.339-54.918 6.928-80.646 1.134-18.481 4.188-36.719 8.85-54.679 2.518-9.691 5.579-19.325 9.804-28.778 3.944-8.827 8.588-17.628 14.784-25.992 10.579-14.301 22.925-26.596 35.208-38.09 38.57-25.109 80.878-49.078 111.347-79.722 31.086-31.274 52.639-67.133 57.446-101.94.412-3.036.704-6.09 1.004-9.2C716.275 12.028 709.833.355 701.561.827" opacity=".7"/><path d="M508.042 1198.92s5.147-8.11 9.325-23.55c6.637-24.55 17.939-63.93 19.585-110.66.331-8.99.008-18.32-.524-27.87-.242-4.73-.591-9.36-.74-13.91-.363-11.62-.094-22.58-.596-33.108-.681-14.491-.564-28.41.919-42.06 9.106-83.436 71.661-161.202 31.351-254.985-24.703-57.473-70.021-88.243-93.119-133.428-3.076-5.981-3.546-12.394-5.006-18.543-2.533-10.645-3.231-19.915-2.057-30.402 1.674-15.073 13.27-31.981 15.304-55.266.309-3.554.596-7.169.973-10.769 2.69-26.506 6.816-54.185 9.156-79.433 1.668-18.175 5.221-36.084 10.267-53.76 2.707-9.522 5.951-18.96 10.236-28.209 4.042-8.671 8.72-17.3 14.832-25.509 10.569-14.247 22.796-26.56 34.972-38.155 38.37-25.196 80.144-49.862 110.049-81.013 30.493-31.785 51.183-68.197 54.574-103.728.296-3.082.478-6.21.599-9.347.58-12.171-6.725-24.006-15.85-23.556" opacity=".72"/><path d="M520.919 1201.28s5.561-8.21 10.528-23.8c7.849-24.67 20.686-64.48 23.39-111.71.526-9.08.396-18.46.03-28.1-.174-4.77-.429-9.42-.514-13.99-.2-11.67.231-22.7-.114-33.251-.485-14.571-.205-28.549 1.525-42.217 10.493-83.694 75.829-161.251 34.174-255.439-25.453-57.562-72.085-87.754-97.628-132.956-3.336-5.883-4.279-12.202-6.059-18.261-3.13-10.542-4.447-19.769-3.999-30.313.629-15.04 11.359-32.083 13.799-55.025.365-3.518.733-7.064 1.161-10.6 3.249-26.168 8.322-53.449 11.38-78.194 2.235-17.891 6.287-35.471 11.714-52.836 2.92-9.321 6.288-18.573 10.701-27.661 4.106-8.494 8.818-16.95 14.879-25.028 10.587-14.16 22.698-26.519 34.708-38.223 38.143-25.316 79.405-50.62 108.755-82.332 29.904-32.324 49.724-69.235 51.706-105.543.181-3.128.217-6.307.223-9.49.025-12.341-8.12-24.28-18.12-23.909" opacity=".74"/><path d="M533.826 1203.66s5.975-8.32 11.706-24.1c9.03-24.79 23.433-65.03 27.19-112.74.718-9.13.814-18.59.61-28.28-.08-4.79-.267-9.48-.288-14.07-.034-11.76.555-22.82.342-33.434-.288-14.652.154-28.689 2.106-42.406 11.874-83.926 79.967-161.305 36.998-255.893-26.174-57.647-74.146-87.293-102.137-132.486-3.597-5.783-5.013-12.008-7.117-17.95-3.732-10.412-5.663-19.623-5.944-30.197-.417-15.007 9.473-32.153 12.293-54.785.415-3.454.865-6.931 1.383-10.454 3.807-25.829 8.907-52.882 13.607-76.981 3.426-17.482 7.321-34.835 13.161-51.913 3.104-9.124 6.659-18.207 11.166-27.113 4.201-8.312 8.952-16.622 14.927-24.545 10.574-14.079 22.604-26.506 34.473-38.288 37.943-25.403 78.671-51.405 107.432-83.656 29.311-32.835 48.264-70.272 48.833-107.33q.054-4.77-.148-9.66c-.504-12.48-9.481-24.575-20.364-24.23" opacity=".77"/><path d="M546.734 1206.03s6.393-8.44 12.913-24.38c10.216-24.95 26.18-65.59 30.995-113.8.915-9.21 1.202-18.72 1.16-28.48-.012-4.83-.105-9.54-.027-14.16.132-11.85.879-22.93.794-33.589-.126-14.711.691-28.801 2.711-42.563 12.216-84.348 84.135-161.355 39.826-256.375-26.925-57.735-76.193-86.913-106.65-131.987-3.857-5.684-5.713-11.838-8.2-17.672-4.334-10.283-6.884-19.45-7.89-30.081-1.428-14.997 7.591-32.251 10.753-54.522.471-3.418.972-6.831 1.601-10.28 4.362-25.464 11.275-51.983 15.865-75.764 3.332-17.273 8.388-34.222 14.578-50.994 3.317-8.924 7.026-17.815 11.598-26.544 4.268-8.161 9.083-16.293 14.973-24.062 10.592-13.993 22.507-26.466 34.209-38.358 37.742-25.489 77.967-52.184 106.138-84.974 28.692-33.378 46.838-71.332 45.961-109.119-.079-3.224-.274-6.494-.524-9.801-1.029-12.645-10.876-24.848-22.634-24.584" opacity=".79"/><path d="M559.641 1208.4s6.782-8.58 14.121-24.67c11.402-25.09 28.931-66.16 34.799-114.85 1.107-9.27 1.62-18.85 1.741-28.66.086-4.88.061-9.63.198-14.25.328-11.93 1.207-23.07 1.276-33.732.07-14.793.9-28.964 3.292-42.752 14.647-84.444 88.439-161.495 42.65-256.829-27.553-57.833-78.207-86.557-111.16-131.516-4.117-5.585-6.446-11.646-9.253-17.39-4.936-10.153-8.095-19.331-9.831-29.992-2.469-14.992 5.68-32.353 9.247-54.281a234 234 0 0 1 1.788-10.112c4.922-25.126 12.782-51.246 18.094-74.551 3.869-16.994 9.424-33.613 16.025-50.07 3.505-8.755 7.397-17.45 12.063-25.997 4.362-7.979 9.182-15.943 15.021-23.58 10.613-13.933 22.408-26.425 33.974-38.422 37.541-25.577 77.232-52.969 104.84-86.265 28.098-33.89 45.382-72.397 43.088-110.907-.195-3.27-.5-6.614-.929-9.949-1.554-12.81-12.268-25.148-24.874-24.932" opacity=".81"/><path d="M572.549 1210.78s7.199-8.72 15.293-24.94c12.588-25.24 31.679-66.71 38.604-115.91 1.303-9.35 2.008-18.98 2.295-28.88.15-4.89.224-9.69.429-14.35.495-12.01 1.531-23.19 1.728-33.887.266-14.874 1.288-29.099 3.902-42.937 16.033-84.703 92.543-161.526 45.474-257.283-28.334-57.926-80.212-86.254-115.699-131.049-4.373-5.513-7.184-11.425-10.311-17.08-5.567-10.028-9.281-19.181-11.806-29.88-3.476-15.009 3.794-32.423 7.737-54.014.603-3.286 1.245-6.621 1.98-9.97 5.481-24.787 14.289-50.509 20.321-73.338 4.433-16.683 10.488-32.973 17.473-49.147 3.688-8.559 7.735-17.062 12.494-25.427 4.431-7.829 9.314-15.615 15.068-23.098 10.6-13.851 22.285-26.416 33.739-38.486 37.341-25.664 76.498-53.754 103.517-87.589 27.509-34.429 43.952-73.43 40.22-112.722-.306-3.344-.76-6.71-1.301-10.118-2.108-12.98-13.658-25.449-27.148-25.259" opacity=".83"/><path d="M585.456 1213.15s7.618-8.84 16.501-25.22c13.778-25.43 35.475-67.13 42.405-116.94 1.315-9.43 2.426-19.12 2.875-29.07.248-4.94.415-9.74.655-14.42.656-12.08 1.855-23.32 2.18-34.048.462-14.955 1.646-29.238 4.477-43.098 17.416-84.935 96.648-161.557 48.273-257.769-29.119-57.993-82.213-85.979-120.208-130.579-4.629-5.441-7.918-11.232-11.365-16.796-6.173-9.871-10.497-19.035-13.748-29.792-4.516-15.003 1.883-32.525 6.232-53.774a287 287 0 0 1 2.168-9.801c6.036-24.421 15.765-49.775 22.575-72.093 4.966-16.376 11.525-32.365 18.915-48.196 3.902-8.358 8.106-16.697 12.959-24.879 4.526-7.647 9.413-15.265 15.116-22.617 10.617-13.764 22.187-26.375 33.475-38.555 37.14-25.751 75.763-54.539 102.223-88.907 26.916-34.94 42.526-74.49 37.347-114.51a163 163 0 0 0-1.676-10.26c-2.638-13.12-15.054-25.722-29.389-25.608" opacity=".85"/><path d="M598.364 1215.52s8.035-8.97 17.707-25.51c14.969-25.6 37.148-67.84 46.21-117.99 1.721-9.48 2.814-19.25 3.425-29.27.317-4.97.578-9.79.885-14.52.853-12.16 2.21-23.43 2.667-34.221.624-15.013 2.004-29.378 5.087-43.282 18.802-85.194 100.722-161.593 51.097-258.223-29.874-58.055-84.235-85.763-124.722-130.081-4.884-5.369-8.622-11.034-12.448-16.518-6.748-9.709-11.708-18.916-15.693-29.675-5.553-15.026-.003-32.596 4.696-53.538.71-3.186 1.488-6.416 2.386-9.628 6.595-24.083 17.272-49.038 24.803-70.881 5.534-16.092 12.562-31.756 20.332-47.276 4.089-8.19 8.477-16.333 13.395-24.337 4.589-7.469 9.545-14.937 15.163-22.135 10.634-13.678 22.092-26.362 33.24-38.619 36.91-25.843 75.024-55.296 100.929-90.226 26.327-35.479 41.101-75.55 34.475-116.298a147 147 0 0 0-2.082-10.407C816.753 19.6 803.471 6.863 788.258 6.924" opacity=".87"/><path d="M611.271 1217.89s8.427-9.13 18.884-25.8c16.159-25.77 39.899-68.41 50.015-119.04 1.913-9.54 3.202-19.39 4.01-29.49.41-4.99.743-9.88 1.141-14.59 1.019-12.25 2.533-23.55 3.118-34.376.821-15.094 2.393-29.513 5.663-43.444 20.189-85.453 104.827-161.624 53.921-258.677-30.659-58.121-86.283-85.579-129.231-129.61-5.17-5.301-9.359-10.814-13.506-16.207-7.35-9.58-12.92-18.798-17.638-29.56-6.586-15.075-1.884-32.693 3.186-53.271a185 185 0 0 1 2.578-9.486c7.15-23.717 18.778-48.3 27.03-69.667 6.098-15.781 13.595-31.121 21.779-46.354 4.274-7.993 8.845-15.94 13.857-23.762 4.687-7.314 9.673-14.582 15.21-21.652 10.651-13.592 21.995-26.321 32.975-38.689 36.714-25.957 74.291-56.081 99.606-91.549 25.738-36.017 39.705-76.604 31.632-118.081-.681-3.486-1.477-7.018-2.457-10.55-3.683-13.477-17.836-26.322-33.903-26.282" opacity=".89"/><path d="M624.179 1220.27s8.845-9.27 20.087-26.06c17.383-25.98 42.62-69 53.815-120.08 2.109-9.61 3.621-19.52 4.59-29.67.478-5.04.906-9.94 1.371-14.7 1.186-12.33 2.858-23.66 3.571-34.527 1.017-15.176 2.751-29.653 6.273-43.629 21.57-85.684 108.931-161.655 56.749-259.158-31.44-58.215-88.292-85.445-133.74-129.138-5.426-5.23-10.063-10.617-14.56-15.926-7.955-9.422-14.161-18.683-19.579-29.47-7.622-15.097-3.796-32.795 1.68-53.03.817-3.085 1.761-6.206 2.766-9.318 7.709-23.378 20.285-47.563 29.258-68.455 6.661-15.47 14.662-30.507 23.227-45.429 4.486-7.793 9.186-15.58 14.291-23.22 4.782-7.132 9.772-14.231 15.258-21.17 10.643-13.537 21.896-26.281 32.741-38.753 36.513-26.044 73.641-56.824 98.307-92.841 25.2-36.492 38.28-77.664 28.764-119.896a154 154 0 0 0-2.828-10.72c-4.243-13.62-19.202-26.59-36.173-26.635" opacity=".91"/><path d="M637.056 1222.63s9.268-9.42 21.295-26.34c18.573-26.16 45.371-69.58 57.62-121.13 2.3-9.67 4.008-19.65 5.139-29.87.577-5.08 1.068-10 1.598-14.78 1.377-12.38 3.186-23.8 4.052-34.67 1.213-15.257 3.11-29.793 6.853-43.817 22.957-85.944 113.266-161.791 59.573-259.613-32.032-58.335-90.361-85.32-138.283-128.645-5.712-5.162-10.801-10.396-15.643-15.647-8.531-9.26-15.369-18.592-21.554-29.359-8.685-15.15-5.682-32.865.169-52.763.902-3.043 1.898-6.1 2.984-9.143 8.264-23.013 21.787-46.799 31.516-67.238 7.225-15.158 15.699-29.899 24.644-44.511 4.674-7.623 9.553-15.187 14.753-22.645 4.849-6.981 9.904-13.903 15.304-20.687 10.661-13.451 21.773-26.272 32.477-38.823 36.312-26.131 72.906-57.609 97.014-94.159 24.61-37.031 36.853-78.724 25.891-121.684a137 137 0 0 0-3.204-10.861C854.491 22.43 838.662 9.353 820.841 9.26" opacity=".94"/><path d="M649.963 1225.01s9.69-9.58 22.472-26.64c19.768-26.36 48.089-70.13 61.425-122.19a244 244 0 0 0 5.72-30.05c.64-5.1 1.23-10.06 1.828-14.88 1.543-12.47 3.51-23.92 4.504-34.83 1.405-15.31 3.498-29.927 7.459-43.974 24.339-86.175 117.438-161.868 62.397-260.067-32.779-58.451-92.46-85.2-142.792-128.174a287 287 0 0 1-16.701-15.336c-9.141-9.077-16.58-18.475-23.496-29.271-9.717-15.199-7.563-32.963-1.336-52.522.953-2.98 2.001-5.973 3.176-9.002 8.878-22.638 23.294-46.062 33.74-65.998 7.792-14.875 16.736-29.291 26.09-43.587a574 574 0 0 1 15.189-22.102c4.944-6.8 10.032-13.549 15.352-20.206 10.677-13.364 21.674-26.232 32.241-38.887 36.112-26.218 72.147-58.425 95.691-95.482 23.991-37.574 35.526-79.825 23.018-123.473a133 133 0 0 0-3.609-11.008c-5.288-13.979-21.983-27.192-40.687-27.31" opacity=".96"/><path d="M662.87 1227.38s10.113-9.74 23.68-26.92c20.996-26.59 50.724-70.76 65.229-123.24a243 243 0 0 0 6.275-30.28c.738-5.14 1.391-10.12 2.053-14.96 1.74-12.55 3.835-24.04 4.961-35.007 1.572-15.396 3.856-30.067 8.039-44.163 25.726-86.434 121.64-161.939 65.191-260.526-33.5-58.535-94.52-85.13-147.301-127.702-6.28-5.056-12.214-9.974-17.755-15.054-9.717-8.915-17.821-18.36-25.441-29.155-10.779-15.253-9.474-33.065-2.872-52.286a137 137 0 0 1 3.394-8.829c9.408-22.304 24.8-45.324 35.968-64.785 8.355-14.563 17.743-28.687 27.537-42.663a632 632 0 0 1 15.65-21.528 718 718 0 0 1 15.399-19.724c10.695-13.277 21.577-26.191 32.007-38.951 35.882-26.31 71.413-59.21 94.397-96.801 23.372-38.117 34.07-80.89 20.146-125.26-1.168-3.702-2.451-7.448-3.985-11.15-5.838-14.177-23.379-27.466-42.927-27.66" opacity=".98"/><path d="M675.778 1229.75s84.823-79.71 100.741-181.95c2.9-18.62 5.187-35.08 7.723-50.188.982-15.544 4.094-30.226 8.649-44.348 26.378-86.89 125.288-161.79 68.019-261.006-34.516-58.498-97.417-84.213-151.815-127.205-18.278-13.459-33.685-26.5-46.224-43.814-14.262-17.247-10.733-38.735-.796-60.705 9.962-21.939 26.529-44.441 38.195-63.573 9.056-14.147 18.811-28.074 28.955-41.745s20.821-27.035 31.532-40.226 21.483-26.178 31.742-39.02c74.892-55.429 146.638-142.518 105.991-236.493-6.496-14.278-24.77-27.765-45.202-27.986"/></g></g></svg>