<svg xmlns="http://www.w3.org/2000/svg" width="1440" height="642" fill="none"><g opacity=".1"><mask id="a" width="1440" height="625" x="0" y="96" maskUnits="userSpaceOnUse" style="mask-type:luminance"><path fill="#fff" d="M1440 96.149H0V721h1440z"/></mask><g mask="url(#a)"><path fill="url(#b)" d="m2967.3 731.926 2.77-4.486-353.45-145.258h11.81v-5.06h-24.18l-250.64-102.934h8.31v-5.061h-20.67l-186.05-76.482h5.72v-5.06h-18.09l-142.67-58.655h3.7v-5.061h-16.06l-112.04-46.004h2.04v-5.061h-14.4l-89.7-36.918h.74v-5.06h-12.92l-73.46-30.133v-4.83h-11.81l-61.46-25.188v-4.485h-10.89l-52.05-21.392v-4.14h-10.15l-44.48-18.287v-3.795h-9.42l-38.57-15.872v-3.565H136.396l-.739-.92-1.845.92H-.37v2.53l-1.291-2.3-1548.899 627.956 2.77 4.486 369.32-149.744h105.02l-335.91 145.258 2.95 4.486 346.25-149.744h105.758l-313.768 145.258 3.14 4.371 323.363-149.744h106.312L-1126.97 727.21l3.32 4.371 300.292-149.629h107.049l-269.469 145.373 3.506 4.256 277.222-149.629h107.603l-247.321 145.373 3.691 4.141 254.335-149.514h108.341L-703.574 727.44l3.876 4.026 231.264-149.514h108.895l-203.025 145.603 4.061 3.796 208.192-149.399h109.449L-421.738 727.67l4.429 3.566 185.307-149.284H-122l-158.544 145.833 4.614 3.336 162.236-149.169H-3.138L-139.534 727.9l4.984 3.106L4.798 581.952h110.926L1.476 728.016l5.168 2.76 116.278-148.824h111.479l-91.915 146.293 5.537 2.301 93.392-148.594h111.848l-69.767 146.523 5.722 1.841 70.505-148.364h112.033l-47.25 146.868 6.091 1.266L478.4 581.952h112.217l-24.916 147.099 6.091.69 25.101-147.789h112.402l-2.4 147.444h6.276l2.399-147.444h112.402l20.302 147.789 6.091-.576-20.118-147.213h112.218l43.004 148.019 6.091-1.151-42.635-146.868h112.035l65.7 148.364 5.91-1.725-64.97-146.639h111.85l88.59 148.594 5.54-2.185-87.3-146.409h111.48l111.48 148.824 5.35-2.646-109.45-146.178h111.11l134.55 148.939 4.98-2.991L1428 581.952h110.56L1696 731.121l4.61-3.336-153.93-145.833h110.19l180.5 149.284 4.43-3.566-176.07-145.718h109.63l203.39 149.399 4.06-3.796-198.22-145.603h109.08l226.46 149.399 3.88-3.911-220.38-145.488h108.35l249.35 149.514 3.69-4.026-242.71-145.488h107.79l272.42 149.629 3.51-4.256-264.86-145.373h107.24l295.49 149.629 3.32-4.371-287-145.373h106.5l318.38 149.629 3.13-4.371-309.15-145.258h105.76l341.45 149.744 2.95-4.486-331.3-145.258h105.02l364.52 149.744zm-639.71-262.914h-87.86L2065.5 392.53h76.04zM36.175 123.406-.739 140.428h-38.02L.737 123.406zm-23.625-5.06 33.223-14.377h32.484l-31.008 14.377zm228.496 82.347h51.679l-32.669 30.018h-56.293zm-45.958 30.018h-55.739l41.712-30.018h51.125l-37.282 30.018zm105.942-30.018h52.233l-28.055 30.018h-56.662l32.669-30.018zm59.985 0h52.602l-23.44 30.018H332.96zm59.984 0h52.971l-18.826 30.018h-57.585zm59.985 0h53.34l-14.211 30.018h-57.955zm59.985 0h53.709l-9.598 30.018h-58.323zm60.169 0h53.894l-4.984 30.018H591.54zm60.169 0h53.894l-.554 30.018h-58.508l4.984-30.018zm60.169 0h53.894l4.06 30.018h-58.507zm60.17 0h53.893l8.675 30.018h-58.508zm60.353 0h53.709l13.289 30.018h-58.323zm60.169 0h53.525l17.903 30.018h-57.954l-13.289-30.018zm60.354 0h53.158l22.51 30.018h-57.765zm60.538 0h52.79l27.13 30.018h-57.22l-22.52-30.018zm60.35 0h52.24l31.56 30.018h-56.85l-27.13-30.018zm60.36 0h51.68l36.17 30.018h-56.29zm60.54 0h51.12l40.79 30.018h-55.74zm60.53 0h50.58l45.4 30.018h-55.19zm60.54 0h50.02l50.02 30.018h-54.63zm60.36 0h49.46l54.63 30.018h-54.08zm-8.31-5.06-41.16-24.613h44.85l44.85 24.613zm-10.52 0h-49.28l-37.28-24.613h45.4zm-59.25 0h-49.83l-33.59-24.613h46.14zm-59.06 0h-50.38l-29.72-24.613h46.7l33.59 24.613zm-59.06 0h-50.94l-26.02-24.613h47.25zm-59.25 0h-51.49l-22.33-24.613h47.62l26.02 24.613zm-59.24 0h-51.87l-18.45-24.613h48.17l22.33 24.613zm-59.06 0h-52.421l-14.766-24.613h48.542l18.455 24.613zm-59.25 0h-52.602l-10.889-24.613h48.91l14.766 24.613zm-59.431 0h-52.971l-7.198-24.613h49.095l10.889 24.613zm-59.246 0h-53.156l-3.322-24.613h49.28zm-59.431 0h-53.156l.369-24.613h49.465zm-59.431 0h-53.156l4.245-24.613h49.465l-.37 24.613zm-59.431 0h-53.155l7.936-24.613h49.28l-4.246 24.613zm-59.431 0h-52.971l11.628-24.613h49.095l-7.936 24.613zm-59.616 0h-52.601l15.503-24.613h48.911l-11.628 24.613zm-59.615 0h-52.233l19.195-24.613h48.542zm-59.615 0h-51.864L388.7 171.02h47.988zm-59.616 0h-51.31l26.763-24.613h47.618zm-59.615 0h-50.941l30.638-24.613h47.065zm-59.8 0h-50.388l34.33-24.613h46.511l-30.638 24.613zm-59.616 0h-49.649l38.206-24.613h45.957l-34.329 24.613zm-7.198 5.06-41.712 30.018H74.934l46.327-30.018h50.572zM64.783 230.711H10.335l50.941-30.018h49.834zm-64.968 0h-53.894l55.555-30.018h49.28zm-65.152 0h-53.156l60.17-30.018h48.54zm-9.413 5.06-68.291 36.918h-59.615l74.012-36.918zm11.258 0H-8.86l-62.753 36.918h-60.354l68.29-36.918zm65.153 0h55.186L-.185 272.689h-60.907zm65.337 0h55.924l-51.494 36.918H9.965zm65.337 0h56.478l-45.773 36.918H81.025l51.495-36.918zm65.152 0h57.032l-40.051 36.918h-62.569l45.773-36.918zm65.338 0h57.585l-34.514 36.918h-63.123zm65.337 0h57.954l-28.793 36.918h-63.676zm65.337 0h58.323l-23.255 36.918h-64.045l28.792-36.918zm65.521 0h58.693l-17.534 36.918h-64.414zm65.337 0h59.062l-11.812 36.918h-64.599l17.534-36.918zm65.522 0h59.246l-6.275 36.918h-64.968l11.813-36.918zm65.337 0h59.247l-.554 36.918h-64.968zm65.707 0h59.431l4.983 36.918h-64.968zm65.521 0h59.246l10.706 36.918h-64.969zm65.706 0h59.062l16.427 36.918h-64.784zm65.522 0h58.877l21.964 36.918h-64.414zm65.891 0h58.507l27.69 36.918h-64.05l-21.963-36.918zm65.707 0h58.14l33.22 36.918h-63.68zm65.71 0h57.58l38.94 36.918h-63.3zm65.89 0h57.03l44.66 36.918h-62.75zm65.89 0h56.66l50.2 36.918h-62.2zm65.7 0h55.93l55.92 36.918h-61.64zm65.89 0h55.37l61.47 36.918h-61.1l-55.92-36.918zm65.89 0h54.82l67.18 36.918h-60.35l-61.46-36.918zm65.9 0h54.07l72.91 36.918h-59.8zm-9.23-5.06-54.64-30.018H1495l59.25 30.018zm-63.86-35.078-44.85-24.613h44.11l48.72 24.613zm-54.08-29.673-37.28-20.472h40.23l40.42 20.472zm-11.08 0h-44.11l-34.14-20.472h40.97zm-54.63 0h-44.66l-31.01-20.472h41.53zm-54.45 0h-45.22l-27.86-20.472h42.08zm-54.63 0h-45.96l-24.73-20.472h42.82zm-54.63 0h-46.33l-21.59-20.472H1129l24.73 20.472zm-54.63 0h-46.88l-18.46-20.472h43.74zm-54.63 0h-47.438l-15.319-20.472h44.297zm-54.636 0H941.85l-12.181-20.472h44.665zm-54.633 0h-48.172l-9.044-20.472h45.035zm-54.816 0h-48.357l-5.906-20.472h45.219zm-54.817 0h-48.541l-2.769-20.472h45.404zm-54.817 0h-48.726l.369-20.472h45.589zm-54.816 0h-48.726l3.506-20.472h45.589zm-54.817 0h-48.542l6.645-20.472h45.404zm-55.001 0H557.58l9.782-20.472h45.219zm-55.002 0h-47.987l12.919-20.472h44.851zm-55.001 0h-47.618l16.057-20.472h44.665l-12.919 20.472zm-55.186 0h-47.249l19.195-20.472h44.112zm-55.001 0h-46.88l22.148-20.472h43.742l-19.195 20.472zm-55.186 0h-46.327l25.286-20.472h43.189zm-55.186 0h-45.773l28.424-20.472h42.635zm-55.186 0H174.97l31.561-20.472h42.082zm-55.186 0h-44.48l34.698-20.472h41.344zm-7.751 5.06-38.206 24.613H69.951l41.897-24.613zm-98.006 24.613H10.704l45.773-24.613h44.666zm-59.616 0h-47.803L1.292 171.02h44.111zm-59.8 0h-47.249l53.156-24.613h43.373l-49.464 24.613zm-10.15 5.06-60.17 30.018h-52.602l64.784-30.018zm-70.321 35.078-74.012 36.918h-58.877l79.733-36.918h53.34zm-84.163 41.979-92.469 46.004h-66.813l99.482-46.004zm11.812 0h60.354l-85.455 46.004h-67.368zm71.797 0h61.092l-78.257 46.004h-68.105l85.455-46.004zm71.613 0h61.645l-71.243 46.004h-68.659zm71.612 0h62.2L0 323.754h-69.398L1.845 277.75zm71.797 0h62.938l-57.216 46.004H9.597zm71.612 0h63.492l-50.203 46.004H88.223zm71.797 0h63.861l-43.004 46.004h-71.059zm71.797 0h64.415l-35.991 46.004h-71.428zm71.797 0h64.784l-28.978 46.004h-71.797zm71.797 0h65.153l-21.964 46.004H403.65zm71.797 0h65.522l-14.766 46.004h-72.535l21.964-46.004zm71.797 0h65.706l-7.751 46.004h-72.72zm71.982 0h65.706l-.738 46.004h-72.905l7.752-46.004zm71.981 0h65.706l6.276 46.004h-72.905L720 277.75zm71.982 0h65.706l13.289 46.004h-72.72zm72.166 0h65.522l20.487 46.004h-72.536l-13.288-46.004zm71.981 0h65.337l27.5 46.004h-72.349zm72.167 0h64.97l34.51 46.004h-71.98zm72.17 0h64.41l41.53 46.004h-71.61l-34.52-46.004zm72.35 0h64.04l48.54 46.004h-71.06zm72.16 0h63.49l55.74 46.004h-70.5l-48.54-46.004zm72.17 0h62.94l62.75 46.004h-70.14l-55.74-46.004zm72.35 0h62.38l69.77 46.004h-69.4zm72.35 0h61.83l76.78 46.004h-68.84zm72.17 0h61.27l83.98 46.004h-68.29l-76.78-46.004zm72.35 0h60.53l91 46.004h-67.55zm72.35 0h59.8l98 46.004h-67l-90.99-46.004zm-9.97-5.061-72.9-36.918h53.52l78.44 36.918zm-82.87-41.978-59.25-30.018h48.18l63.86 30.018zm-69.21-35.078-48.73-24.613h43.56l52.42 24.613zm-58.7-29.673-40.42-20.472h39.69l43.55 20.472zm-50.38-25.532-33.78-17.022h36.18l36.36 17.022zm-11.82 0h-39.49l-31.01-17.022h36.91l33.78 17.022zm-50.57 0h-40.23l-28.43-17.022h37.66zm-50.57 0h-40.79l-25.84-17.022h38.21zm-50.75 0h-41.35l-23.25-17.022h38.76zm-50.58 0h-41.89l-20.68-17.022h39.32zm-50.75 0h-42.45l-18.09-17.022h39.87zm-50.76 0h-43l-15.32-17.022h40.42l18.09 17.022zm-50.76 0h-43.554l-12.735-17.022h40.789l15.32 17.022zm-50.752 0h-43.927l-10.151-17.022h41.343zm-50.756 0h-44.296l-7.567-17.022h41.527l10.152 17.022zm-50.756 0h-44.481l-4.983-17.022h41.897zm-50.941 0H773.34l-2.4-17.022h42.082zm-50.941 0h-44.665l.369-17.022h42.082l2.399 17.022zm-50.94 0h-44.666l2.953-17.022h42.082v17.022zm-50.941 0h-44.666l5.537-17.022h42.082zm-51.125 0h-44.481l8.121-17.022h41.897zm-50.941 0h-44.112l10.705-17.022h41.528zm-51.31 0h-43.743l13.289-17.022h41.159zm-51.125 0h-43.374l15.873-17.022h40.789zm-51.126 0h-43.004l18.641-17.022h40.236zm-51.31 0h-42.45l21.225-17.022h39.867zm-51.125 0h-41.897l23.809-17.022h39.313zm-51.31 0h-41.343l26.393-17.022h38.575l-23.81 17.022zm-51.31 0h-40.605l28.977-17.022h38.021zm-51.31 0H113.14l31.561-17.022h37.467zm-8.49 5.06-34.699 20.472H66.075l37.836-20.472zm-90.07 20.472H11.444l40.974-20.472h40.051zm-55.185 0h-42.635L.922 145.488H40.42zm-55.186 0h-41.897l47.25-20.472h38.759zm-10.89 5.06-53.155 24.613h-46.511l57.031-24.613h42.82zm-64.229 29.673-64.783 30.018h-51.864l69.397-30.018zm-75.673 35.078-79.733 36.918h-58.324l85.271-36.918zm-90.623 41.979-99.482 46.004h-66.076l106.496-46.004zm-110.556 51.18-126.614 58.655h-75.857l135.657-58.655zm12.735 0h67.552l-117.57 58.655h-76.596zm79.364 0h68.29l-108.71 58.655h-77.15zm79.549 0h68.844l-99.667 58.655h-77.887zm79.549 0h69.582l-90.623 58.655h-78.441l99.667-58.655zm79.549 0H-6.83l-81.764 58.655h-79.18l90.623-58.655zm79.364 0h70.69L.369 387.585h-79.734zm79.549 0h71.243l-63.86 58.655H9.043l72.72-58.655zm79.733 0h71.797l-54.816 58.655H98.005l63.861-58.655zm79.549 0h72.166l-45.773 58.655h-81.21zm79.549 0h72.72l-36.914 58.655h-81.579zm79.549 0h73.089l-27.87 58.655h-81.948l36.913-58.655zm79.733 0h73.274l-18.826 58.655h-82.318zm79.733 0h73.459l-9.967 58.655h-82.502l18.826-58.655zm79.734 0h73.643l-.923 58.655h-82.502l9.966-58.655zm79.733 0h73.643l8.121 58.655h-82.502l.923-58.655zm79.918 0h73.458l16.981 58.655h-82.502zm79.918 0h73.274l26.024 58.655h-82.317zm79.918 0h73.085l34.89 58.655h-82.135l-26.024-58.655zm79.915 0h72.72l43.93 58.655h-81.76zm80.11 0h72.35l52.97 58.655h-81.4zm80.1 0h71.8l61.83 58.655h-80.85l-52.97-58.655zm79.92 0h71.42l70.88 58.655h-80.29l-61.83-58.655zm80.1 0h70.87l79.92 58.655h-79.73l-70.88-58.655zm80.1 0h70.32l88.78 58.655h-79.18zm80.1 0h69.59l97.82 58.655h-78.63zm80.29 0h69.03l106.68 58.655h-78.07l-97.82-58.655zm80.1 0h68.29l115.73 58.655h-77.34zm80.11 0h67.73l124.77 58.655h-76.6l-115.72-58.655zm80.1 0h67l133.62 58.655h-76.04l-124.77-58.655zm-10.71-5.061-98-46.004h59.24l105.02 46.004zm-108.71-51.18-78.44-36.918h52.79l84.16 36.918zm-89.33-41.978-63.86-30.018h47.44l68.29 30.018h-52.05zm-74.56-35.078-52.42-24.613h42.82l56.29 24.613zm-63.31-29.673-43.56-20.472h38.95l46.69 20.472zm-54.26-25.532-36.36-17.022h35.62l38.94 17.022zm-47.07-22.082-30.45-14.377h32.67l32.67 14.377zm-12.36 0h-35.44l-28.24-14.377h33.22zm-47.25 0h-36.18l-26.21-14.377h33.96l28.24 14.377zm-47.25 0h-36.73l-24-14.377h34.52zm-47.25 0h-37.47l-21.78-14.377h35.25zm-47.44 0h-38.02l-19.56-14.377h35.8zm-47.25 0h-38.57l-17.35-14.377h36.36zm-47.25 0h-39.12l-15.14-14.377h36.92zm-47.43 0h-39.68l-12.921-14.377h37.471zm-47.25 0h-40.05l-10.705-14.377h37.837zm-47.433 0h-40.42l-8.49-14.377h38.205zm-47.249 0h-40.79l-6.275-14.377h38.575zm-47.434 0h-41.159l-4.245-14.377h38.944l6.275 14.377zm-47.619 0h-41.343l-2.03-14.377H807.3zm-47.433 0h-41.344v-14.377h39.313zm-47.619 0H675.15l2.399-14.377h39.128v14.377zm-47.619 0h-41.158l4.614-14.377h39.128l-2.399 14.377zm-47.618 0h-40.975l6.83-14.377h38.759zm-47.619 0h-40.789l9.044-14.377h38.574zm-47.803 0h-40.42l11.258-14.377h38.206zm-47.803 0H437.98l13.473-14.377h37.837zm-47.803 0H390.73l15.688-14.377h37.283zm-47.803 0h-38.944l17.718-14.377h36.729l-15.688 14.377zm-47.803 0h-38.391l19.934-14.377h36.36l-17.719 14.377zm-47.988 0h-37.837l22.149-14.377h35.621zm-47.803 0h-37.283l24.363-14.377h35.068zm-47.988 0h-36.544l26.577-14.377h34.515l-24.363 14.377zm-47.803 0h-35.991l28.793-14.377h33.776zm-9.413 5.06-31.561 17.022H62.753l34.33-17.022h36.729zm-83.056 17.022H11.812l36.914-17.022H84.9zm-102.62 0H-89.33l42.081-17.022h34.7zm-11.627 5.06-47.25 20.472h-41.343l50.387-20.472zm-59.062 25.532-57.032 24.613h-45.772l60.722-24.613zm-68.659 29.673-69.398 30.018h-51.125l74.011-30.018zm-81.026 35.078-85.27 36.918h-57.586l90.993-36.918h52.048zm-97.083 41.979-106.495 46.004h-65.522l113.509-46.004zm-118.308 51.18-135.657 58.655h-75.119l144.516-58.655zm-147.285 63.6-176.816 76.482h-87.67l188.444-76.482zm13.289 0h76.596l-165.004 76.482h-88.408zm89.146 0h77.334l-153.376 76.482h-88.962zm89.331 0h77.888l-141.748 76.482h-89.7l153.376-76.482zm89.146 0h78.627l-129.936 76.482h-90.254l141.748-76.482zm89.332 0h79.179l-118.308 76.482h-90.992l129.936-76.482zm89.33 0h79.918l-106.495 76.482h-91.546l118.308-76.482zm89.147 0h80.472l-94.868 76.482h-92.1zm89.33 0h81.026L.738 469.012h-92.653zm89.332 0h81.579l-71.428 76.482H9.228l83.24-76.482zm89.331 0h81.948l-59.8 76.482h-93.761l71.428-76.482zm89.331 0h82.317l-47.988 76.482h-94.129zm89.515 0h82.686l-36.359 76.482h-94.499l47.987-76.482zm89.331 0h83.056L508.3 469.012h-94.683l36.36-76.482zm89.516 0h83.24l-12.92 76.482H514.76l24.732-76.482zm89.515 0h83.425l-1.292 76.482h-95.053zm89.516 0h83.424l10.521 76.482h-95.053l1.292-76.482zm89.515 0h83.24l22.148 76.482H818.19l-10.521-76.482zm89.7 0h83.056l33.96 76.482h-94.868zm89.7 0h82.876l45.58 76.482h-94.5zm89.696 0h82.51l57.21 76.482h-94.13zm89.89 0h82.13l69.03 76.482h-93.76l-57.22-76.482zm89.7 0h81.58l80.65 76.482h-93.39l-69.03-76.482zm89.88 0h81.21l92.47 76.482h-92.84l-80.65-76.482zm89.7 0h80.66l104.1 76.482h-92.29zm89.89 0h79.92l115.72 76.482h-91.73l-104.1-76.482zm89.88 0h79.37l127.53 76.482h-91.17zm89.89 0h78.81l139.16 76.482h-90.44zm89.88 0h78.07l150.98 76.482h-89.88zm90.07 0h77.52l162.6 76.482h-89.14zm89.89 0h76.78l174.23 76.482h-88.41zm153.56-5.06h-75.31l-133.62-58.656h66.26zm-155.04-63.601h-65.52l-105.02-46.004h58.51zm-124.4-51.18h-57.77l-84.16-36.918h52.05l89.7 36.918zm-153.38-41.978-68.29-30.018h46.7l72.9 30.018zm-79.91-35.078-56.3-24.613h42.09l59.98 24.613h-45.96zm-67.74-29.673-46.7-20.472h38.21l49.83 20.472zm-58.32-25.532-38.95-17.022h34.89l41.52 17.022zM1440 118.346l-32.67-14.377h31.93l34.88 14.377zm-1344.948 0H59.8l31.007-14.377h33.038zM.553 103.969H32.3L-.923 118.346h-33.96zM-1165.92 577.007l253.969-102.934h88.408l-238.097 102.934zm117.39 0 238.091-102.934h89.147l-222.405 102.934zm117.568 0 222.405-102.934h89.7l-206.532 102.934zm117.386 0 206.531-102.934h90.439L-707.45 577.007zm117.569 0 190.844-102.934h91.177l-175.156 102.934zm117.386 0 175.155-102.934h91.73l-159.282 102.934zm117.57 0 159.282-102.934h92.284l-143.594 102.934h-108.157zm117.57 0 143.593-102.934h93.023l-127.721 102.934zm117.569 0 127.721-102.934h93.577l-112.033 102.934zm117.57 0L3.691 474.073h93.945L1.292 577.007h-109.818zm117.57 0 96.345-102.934h94.498L119.6 577.007zm117.57 0 80.472-102.934h94.868l-64.784 102.934H126.613zm117.57 0 64.783-102.934h95.237l-48.91 102.934zm117.754 0 48.911-102.934h95.606l-33.222 102.934zm117.755 0 33.222-102.934h95.791l-17.35 102.934zm117.57 0 17.349-102.934h95.791l-1.661 102.934H597.262zm117.938 0 1.662-102.934h95.79l14.028 102.934H715.201zm117.755 0-14.027-102.934h95.791l29.899 102.934zm117.939 0-29.9-102.934h95.611l45.58 102.934zm117.941 0-45.59-102.934h95.24l61.46 102.934zm117.94 0-61.46-102.934h95.05l77.15 102.934zm118.12 0-77.15-102.934h94.5l93.02 102.934zm117.94 0L1330 474.073h94.13l108.71 102.934zm118.12 0-108.71-102.934h93.58l124.4 102.934h-109.45zm118.13 0-124.4-102.934h93.02l140.27 102.934zm117.94 0-140.28-102.934h92.47l155.96 102.934h-108.34zm118.12 0-155.96-102.934h91.91l171.84 102.934zm118.12 0-171.83-102.934h91.18l187.52 102.934h-107.05zm118.31 0-187.52-102.934h90.62l203.21 102.934zm118.12 0-203.21-102.934h89.89l219.08 102.934zm118.13 0-219.08-102.934h89.33l234.77 102.934zm118.12 0-234.77-102.934h88.59l250.65 102.934z"/></g><path fill="url(#c)" d="M1440 0H0v112.02h1440z" style="mix-blend-mode:screen"/></g><defs><linearGradient id="b" x1="709.848" x2="709.848" y1="731.926" y2="97.989" gradientUnits="userSpaceOnUse"><stop stop-color="#0048E0"/><stop offset=".05" stop-color="#0E4AE1"/><stop offset=".52" stop-color="#8E61F1"/><stop offset=".83" stop-color="#DF70FB"/><stop offset=".98" stop-color="#FF76FF"/></linearGradient><linearGradient id="c" x1="720" x2="720" y1="112.135" y2="0" gradientUnits="userSpaceOnUse"><stop/><stop offset=".13" stop-color="#D02BD6"/><stop offset=".18" stop-color="#B024B5"/><stop offset=".27" stop-color="#811A85"/><stop offset=".36" stop-color="#5A125C"/><stop offset=".45" stop-color="#390B3B"/><stop offset=".55" stop-color="#200621"/><stop offset=".64" stop-color="#0E020E"/><stop offset=".75" stop-color="#030003"/><stop offset=".86"/></linearGradient></defs></svg>