<svg xmlns="http://www.w3.org/2000/svg" width="746" height="1330" fill="none"><path fill="#110F0F" d="M219.632-189 933.24-79.24 716.61 1329.197 3.001 1219.437z"/><path stroke="#BE40E8" stroke-linecap="round" stroke-linejoin="round" stroke-width="1.91" d="M211.963-21.521c-10.825 69.523-19.767 68.13-30.585 137.608-10.818 69.477-1.883 70.916-12.708 140.439-10.825 69.524-19.767 68.131-30.592 137.655-10.825 69.523-1.882 70.916-12.707 140.439-10.825 69.524-19.768 68.131-30.593 137.655-10.825 69.523-1.882 70.916-12.707 140.439-10.825 69.524-19.767 68.131-30.592 137.655-10.825 69.521-1.883 70.911-12.708 140.441"/><path stroke="#BE40E8" stroke-linecap="round" stroke-linejoin="round" stroke-width="1.82" d="M250.343-15.545c-10.825 69.523-28.71 66.738-39.528 136.216-10.817 69.477 7.061 72.308-3.764 141.831-10.825 69.524-28.71 66.739-39.535 136.262-10.825 69.524 7.06 72.309-3.765 141.832-10.825 69.524-28.71 66.739-39.535 136.262-10.825 69.524 7.06 72.309-3.765 141.832-10.825 69.524-28.71 66.739-39.535 136.262-10.825 69.528 7.06 72.308-3.764 141.828"/><path stroke="#BE40E8" stroke-linecap="round" stroke-linejoin="round" stroke-width="1.72" d="M288.659-9.58c-10.825 69.524-37.653 65.347-48.471 134.824s16.003 73.701 5.178 143.224c-10.825 69.524-37.652 65.347-48.477 134.87s16.002 73.701 5.177 143.224c-10.824 69.524-37.652 65.347-48.477 134.87s16.003 73.701 5.178 143.224c-10.825 69.524-37.653 65.347-48.478 134.87s16.003 73.704 5.178 143.224"/><path stroke="#BE40E8" stroke-linecap="round" stroke-linejoin="round" stroke-width="1.63" d="M327.04-3.603c-10.825 69.523-46.53 63.964-57.348 133.441s24.88 75.083 14.055 144.606c-10.825 69.524-46.53 63.964-57.354 133.488-10.825 69.523 24.879 75.083 14.054 144.606-10.824 69.524-46.529 63.964-57.354 133.488-10.825 69.523 24.88 75.083 14.055 144.606-10.825 69.524-46.53 63.964-57.355 133.488-10.825 69.52 24.88 75.08 14.055 144.61"/><path stroke="#BE40E8" stroke-linecap="round" stroke-linejoin="round" stroke-width="1.54" d="M365.421 2.373c-10.825 69.523-55.472 62.571-66.29 132.048s33.822 76.476 22.997 145.999c-10.825 69.524-55.472 62.572-66.297 132.095-10.825 69.524 33.822 76.476 22.997 145.999-10.825 69.524-55.472 62.572-66.297 132.095-10.825 69.524 33.823 76.476 22.998 145.999-10.825 69.524-55.473 62.572-66.297 132.095-10.825 69.527 33.822 76.477 22.997 145.997"/><path stroke="#BE40E8" stroke-linecap="round" stroke-linejoin="round" stroke-width="1.45" d="M403.736 8.338c-10.825 69.524-64.414 61.18-75.232 130.657s42.765 77.867 31.94 147.391-64.415 61.179-75.24 130.703c-10.825 69.523 42.765 77.867 31.94 147.391s-64.415 61.179-75.24 130.703c-10.825 69.523 42.765 77.867 31.94 147.391s-64.414 61.179-75.239 130.703c-10.825 69.523 42.764 77.863 31.939 147.393"/><path stroke="#BE40E8" stroke-linecap="round" stroke-linejoin="round" stroke-width="1.36" d="M442.117 14.315c-10.825 69.523-73.357 59.787-84.175 129.264s51.707 79.26 40.883 148.783c-10.825 69.524-73.358 59.787-84.182 129.311-10.825 69.523 51.707 79.26 40.882 148.783s-73.357 59.787-84.182 129.311c-10.825 69.523 51.707 79.259 40.882 148.783s-73.357 59.787-84.182 129.311c-10.825 69.519 51.707 79.259 40.882 148.779"/><path stroke="#BE40E8" stroke-linecap="round" stroke-linejoin="round" stroke-width="1.26" d="M480.433 20.28c-10.825 69.524-82.3 58.395-93.118 127.872s60.65 80.652 49.825 150.176-82.299 58.394-93.124 127.918c-10.825 69.523 60.649 80.652 49.824 150.176s-82.299 58.394-93.124 127.918c-10.825 69.523 60.649 80.652 49.825 150.176-10.825 69.523-82.3 58.394-93.125 127.918-10.825 69.526 60.65 80.656 49.825 150.176"/><path stroke="#BE40E8" stroke-linecap="round" stroke-linejoin="round" stroke-width="1.17" d="M518.813 26.256c-10.824 69.523-91.241 57.002-102.059 126.479s69.592 82.045 58.767 151.569-91.242 57.002-102.067 126.525c-10.825 69.524 69.592 82.045 58.767 151.568S340.979 639.4 330.154 708.923c-10.825 69.524 69.592 82.045 58.767 151.568s-91.241 57.003-102.066 126.526 69.592 82.043 58.767 151.573"/><ellipse cx="557.194" cy="32.232" fill="#BE40E8" rx="3.567" ry="2.533" transform="rotate(8.85 557.194 32.232)"/><path stroke="#BE40E8" stroke-linecap="round" stroke-linejoin="round" stroke-width="1.08" d="M549.749 54.714c-24.499 44.845-94.024 41.805-103.492 102.615-10.825 69.523 78.469 83.427 67.644 152.95-10.825 69.524-100.119 55.62-110.944 125.144-10.825 69.523 78.469 83.427 67.644 152.95-10.825 69.524-100.119 55.62-110.944 125.144-10.825 69.523 78.47 83.427 67.645 152.95-10.825 69.524-100.119 55.62-110.944 125.144-10.183 65.399 68.257 81.599 68.607 141.189"/><ellipse cx="384.001" cy="1144.56" fill="#BE40E8" rx="3.567" ry="2.533" transform="rotate(8.85 384.001 1144.56)"/><ellipse cx="595.51" cy="38.198" fill="#BE40E8" rx="3.27" ry="2.322" transform="rotate(8.85 595.51 38.198)"/><path stroke="#BE40E8" stroke-linecap="round" stroke-linejoin="round" stroke-width=".99" d="M587.47 61.062c-26.457 44.113-102.401 40.216-111.84 100.841-10.825 69.523 87.412 84.819 76.587 154.342S443.155 370.473 432.33 439.996c-10.825 69.524 87.412 84.82 76.587 154.343-10.825 69.524-109.062 54.228-119.887 123.751-10.825 69.524 87.412 84.82 76.587 154.343-10.825 69.524-109.061 54.228-119.886 123.751-10.169 65.306 75.959 82.796 77.389 142.316"/><ellipse cx="422.317" cy="1150.53" fill="#BE40E8" rx="3.27" ry="2.322" transform="rotate(8.85 422.317 1150.53)"/><ellipse cx="633.891" cy="44.173" fill="#BE40E8" rx="2.94" ry="2.087" transform="rotate(8.85 633.891 44.173)"/><path stroke="#BE40E8" stroke-linecap="round" stroke-linejoin="round" stroke-width=".89" d="M625.134 67.354c-28.423 43.427-110.655 38.693-120.065 99.132-10.825 69.524 96.354 86.212 85.529 155.735S472.594 375.057 461.769 444.58c-10.825 69.524 96.354 86.212 85.529 155.735s-118.004 52.836-128.829 122.359c-10.825 69.524 96.354 86.212 85.529 155.735S385.994 931.245 375.17 1000.77c-10.154 65.21 83.473 83.92 86.244 143.41"/><ellipse cx="460.699" cy="1156.5" fill="#BE40E8" rx="2.94" ry="2.087" transform="rotate(8.85 460.699 1156.5)"/><ellipse cx="672.271" cy="50.15" fill="#BE40E8" rx="2.642" ry="1.876" transform="rotate(8.85 672.271 50.15)"/><path stroke="#BE40E8" stroke-linecap="round" stroke-linejoin="round" stroke-width=".8" d="M662.781 73.738c-30.504 42.628-118.9 37.124-128.274 97.332-10.825 69.523 105.296 87.604 94.471 157.127S502.032 379.64 491.207 449.164c-10.825 69.523 105.296 87.604 94.471 157.127s-126.946 51.443-137.771 120.967c-10.825 69.523 105.297 87.604 94.472 157.127s-126.947 51.443-137.772 120.965c-10.139 65.12 91.111 85.11 95.028 144.54"/><ellipse cx="499.079" cy="1162.48" fill="#BE40E8" rx="2.642" ry="1.876" transform="rotate(8.85 499.079 1162.48)"/><ellipse cx="710.586" cy="56.116" fill="#BE40E8" rx="2.345" ry="1.665" transform="rotate(8.85 710.586 56.116)"/><path stroke="#BE40E8" stroke-linecap="round" stroke-linejoin="round" stroke-width=".71" d="M700.372 80.066c-32.594 41.875-127.081 35.566-136.427 95.588-10.825 69.523 114.239 88.996 103.414 158.519S531.47 384.224 520.645 453.748c-10.825 69.523 114.239 88.996 103.414 158.519S488.17 662.318 477.345 731.842c-10.824 69.523 114.239 88.996 103.414 158.519s-135.888 50.051-146.713 119.579c-10.125 65.02 98.551 86.26 103.89 145.58"/><ellipse cx="537.394" cy="1168.45" fill="#BE40E8" rx="2.345" ry="1.665" transform="rotate(8.85 537.394 1168.45)"/><path stroke="#BE40E8" stroke-linecap="round" stroke-linejoin="round" stroke-width=".62" d="M738.224 86.006c-34.48 41.535-135.567 34.245-144.906 94.221-10.825 69.523 123.182 90.388 112.357 159.912-10.825 69.523-144.831 48.658-155.656 118.182-10.825 69.523 123.181 90.388 112.356 159.912-10.825 69.523-144.831 48.658-155.656 118.182-10.825 69.523 123.181 90.388 112.356 159.912-10.825 69.523-144.831 48.658-155.656 118.183-10.118 64.98 106.319 87.48 112.709 146.91"/><ellipse cx="575.775" cy="1174.42" fill="#BE40E8" rx="2.048" ry="1.454" transform="rotate(8.85 575.775 1174.42)"/><path stroke="#BE40E8" stroke-linecap="round" stroke-linejoin="round" stroke-width=".53" d="M775.742 92.37c-36.633 40.772-143.683 32.697-152.992 92.487-10.825 69.523 132.058 91.77 121.233 161.294-10.825 69.523-153.708 47.276-164.533 116.8-10.825 69.523 132.059 91.77 121.234 161.294-10.825 69.523-153.709 47.276-164.534 116.8-10.825 69.523 132.059 91.77 121.234 161.294-10.825 69.523-153.708 47.276-164.533 116.801-10.104 64.89 113.694 88.63 121.434 147.98"/><ellipse cx="614.157" cy="1180.4" fill="#BE40E8" rx="1.751" ry="1.243" transform="rotate(8.85 614.157 1180.4)"/><path stroke="#BE40E8" stroke-linecap="round" stroke-linejoin="round" stroke-width=".43" d="M813.202 98.677c-38.918 39.989-151.733 31.158-161.006 90.717-10.825 69.523 141 93.163 130.175 162.686s-162.65 45.884-173.475 115.408c-10.825 69.523 141.001 93.163 130.176 162.686s-162.651 45.884-173.476 115.408c-10.825 69.523 141.001 93.163 130.176 162.686s-162.651 45.884-173.476 115.412c-10.089 64.79 121.013 89.71 130.231 149.02"/><ellipse cx="652.472" cy="1186.36" fill="#BE40E8" rx="1.42" ry="1.008" transform="rotate(8.85 652.472 1186.36)"/><path stroke="#BE40E8" stroke-linecap="round" stroke-linejoin="round" stroke-width=".34" d="M850.662 104.985c-41.204 39.206-159.785 29.62-169.029 88.993-10.825 69.524 149.944 94.556 139.119 164.079s-171.594 44.492-182.419 114.015c-10.825 69.524 149.944 94.556 139.119 164.079s-171.594 44.492-182.419 114.015c-10.825 69.524 149.944 94.556 139.119 164.079s-171.593 44.492-182.418 114.015c-10.068 64.66 128.258 90.85 139.021 150.11"/><ellipse cx="690.852" cy="1192.34" fill="#BE40E8" rx="1.123" ry=".797" transform="rotate(8.85 690.852 1192.34)"/><path stroke="#BE40E8" stroke-linecap="round" stroke-linejoin="round" stroke-width=".25" d="M888.448 110.916c-43.154 38.854-168.139 28.319-177.376 87.645-10.825 69.524 158.886 95.948 148.061 165.472-10.825 69.523-180.536 43.099-191.361 112.622-10.825 69.524 158.886 95.948 148.061 165.471s-180.536 43.1-191.361 112.623c-10.825 69.524 158.886 95.948 148.061 165.471s-180.536 43.1-191.36 112.62c-10.06 64.61 135.829 92.03 147.782 151.38"/><ellipse cx="729.234" cy="1198.31" fill="#BE40E8" rx=".826" ry=".586" transform="rotate(8.85 729.234 1198.31)"/></svg>