<svg xmlns="http://www.w3.org/2000/svg" width="37" height="42" fill="none"><path stroke="#F8FAF5" stroke-linejoin="round" stroke-width="2" d="M28.76 7.269A9.48 9.48 0 0 1 26.402 1h-1.845m4.203 6.269A9.6 9.6 0 0 0 36 10.566v6.872a16.46 16.46 0 0 1-9.598-3.074v13.977c0 6.984-5.703 12.659-12.7 12.659a12.7 12.7 0 0 1-9.291-4.04A12.6 12.6 0 0 1 1 28.341c0-6.881 5.535-12.49 12.394-12.64M28.76 7.27l-.107-.07M9.005 31.702a5.7 5.7 0 0 1-1.1-3.37c0-3.186 2.6-5.777 5.796-5.777.597 0 1.174.102 1.715.269v-7.021a13 13 0 0 0-1.715-.121c-.102 0-.928.055-1.03.055M24.548 1h-5.051l-.01 27.555c-.111 3.083-2.664 5.563-5.786 5.563-1.938 0-3.644-.956-4.706-2.405"/></svg>